<svg id="Capa_1" enable-background="new 0 0 512 512" height="512" viewBox="0 0 512 512" width="512" xmlns="http://www.w3.org/2000/svg"><g><path d="m423.747 0h-335.494c-8.284 0-15 6.716-15 15v482c0 8.284 6.716 15 15 15h335.494c8.284 0 15-6.716 15-15v-482c0-8.284-6.716-15-15-15zm-15 482h-305.494v-452h305.494z"/><path d="m167.914 123.032h172.756c8.284 0 15-6.716 15-15s-6.716-15-15-15h-172.756c-8.284 0-15 6.716-15 15s6.715 15 15 15z"/><path d="m242.396 222.048c0 8.284 6.716 15 15 15h106.76c8.284 0 15-6.716 15-15s-6.716-15-15-15h-106.76c-8.284 0-15 6.716-15 15z"/><path d="m150.45 232.654c2.929 2.929 6.768 4.394 10.606 4.394s7.678-1.465 10.606-4.394l29.607-29.607c5.858-5.857 5.858-15.355 0-21.213-5.857-5.857-15.355-5.857-21.213 0l-17.712 17.712-2.061.517-6.352-6.351c-5.858-5.859-15.355-5.857-21.213 0-5.857 5.858-5.857 15.355 0 21.213z"/><path d="m364.156 300.185h-106.76c-8.284 0-15 6.716-15 15s6.716 15 15 15h106.76c8.284 0 15-6.716 15-15s-6.716-15-15-15z"/><path d="m150.45 325.791c2.929 2.929 6.768 4.394 10.606 4.394s7.678-1.465 10.606-4.394l29.607-29.607c5.858-5.857 5.858-15.355 0-21.213-5.857-5.857-15.355-5.857-21.213 0l-17.712 17.712-2.061.517-6.352-6.351c-5.858-5.859-15.355-5.857-21.213 0-5.857 5.858-5.857 15.355 0 21.213z"/><path d="m364.156 393.321h-106.76c-8.284 0-15 6.716-15 15s6.716 15 15 15h106.76c8.284 0 15-6.716 15-15s-6.716-15-15-15z"/><path d="m150.45 418.928c2.929 2.929 6.768 4.394 10.606 4.394s7.678-1.465 10.606-4.394l29.607-29.607c5.858-5.857 5.858-15.355 0-21.213-5.857-5.857-15.355-5.857-21.213 0l-17.712 17.712-2.061.517-6.352-6.351c-5.858-5.859-15.355-5.857-21.213 0-5.857 5.858-5.857 15.355 0 21.213z"/></g></svg>